<svg width="34" height="34" viewBox="0 0 34 34" fill="none" xmlns="http://www.w3.org/2000/svg">
<rect width="34" height="34" rx="3" fill="#161616"/>
<path d="M22.4107 23.748V23.694C22.4107 23.598 22.5187 23.448 22.7347 23.244C22.9627 23.028 23.0767 22.788 23.0767 22.524V12.714C23.0767 12.45 22.9627 12.216 22.7347 12.012C22.5187 11.796 22.4107 11.634 22.4107 11.526V11.472C22.4107 11.304 22.5367 11.22 22.7887 11.22H25.5967C25.8487 11.22 25.9747 11.304 25.9747 11.472V11.526C25.9747 11.634 25.8547 11.796 25.6147 12.012C25.3747 12.216 25.2547 12.45 25.2547 12.714V22.524C25.2547 22.788 25.3747 23.028 25.6147 23.244C25.8547 23.448 25.9747 23.598 25.9747 23.694V23.748C25.9747 23.916 25.8487 24 25.5967 24H22.7887C22.5367 24 22.4107 23.916 22.4107 23.748Z" fill="white"/>
<path d="M18.808 22.164C18.844 22.488 19.006 22.8 19.294 23.1C19.594 23.4 19.744 23.598 19.744 23.694V23.748C19.744 23.916 19.612 24 19.348 24H16.216C15.952 24 15.82 23.916 15.82 23.748V23.694C15.82 23.598 15.94 23.448 16.18 23.244C16.432 23.028 16.552 22.776 16.54 22.488C16.54 21.576 16.228 20.568 15.604 19.464C14.992 18.36 14.212 17.514 13.264 16.926L10.816 19.374V22.488C10.816 22.752 10.936 22.998 11.176 23.226C11.428 23.442 11.554 23.598 11.554 23.694V23.748C11.554 23.916 11.422 24 11.158 24H8.35C8.098 24 7.972 23.916 7.972 23.748V23.694C7.972 23.598 8.08 23.442 8.296 23.226C8.524 22.998 8.638 22.752 8.638 22.488V12.714C8.638 12.45 8.524 12.216 8.296 12.012C8.08 11.796 7.972 11.64 7.972 11.544V11.472C7.972 11.304 8.098 11.22 8.35 11.22H11.158C11.422 11.22 11.554 11.304 11.554 11.472V11.544C11.554 11.64 11.428 11.796 11.176 12.012C10.936 12.216 10.816 12.45 10.816 12.714V18.006L16.054 12.75C16.234 12.51 16.306 12.342 16.27 12.246C16.234 12.15 16.15 12.03 16.018 11.886C15.898 11.742 15.838 11.628 15.838 11.544V11.472C15.838 11.304 15.964 11.22 16.216 11.22H18.448C18.7 11.22 18.826 11.304 18.826 11.472V11.544C18.826 11.652 18.76 11.76 18.628 11.868C18.508 11.964 18.322 12.09 18.07 12.246C17.83 12.402 17.626 12.57 17.458 12.75L14.704 15.504C15.904 16.26 16.864 17.286 17.584 18.582C18.316 19.866 18.724 21.06 18.808 22.164Z" fill="white"/>
</svg>
